<svg version="1.0" xmlns="http://www.w3.org/2000/svg"
 width="959.000000pt" height="1000.000000pt" viewBox="0 0 959.000000 1000.000000"
 preserveAspectRatio="xMidYMid meet">

  <defs>
    <linearGradient id="Gradient1" x1="0" x2="0" y1="0" y2="1">
      <stop class="stop1" offset="10%" stop-color="black" />
      <stop class="stop2" offset="50%" stop-color="aqua" stop-opacity="50%" />
      <stop class="stop3" offset="100%" stop-color="aqua" />
    </linearGradient>
    <linearGradient id="Gradient2" x1="0" x2="0" y1="0" y2="1">
      <stop offset="0%" stop-color="black" />
      <stop offset="50%" stop-color="rgb(211, 0, 0)" stop-opacity="50" />
      <stop offset="100%" stop-color="rgb(181, 0, 181)" />
    </linearGradient>
    
    <!-- <style>
      <![CDATA[
              #rect1 { fill: url(#Gradient1); }
              .stop1 { stop-color: red; }
              .stop2 { stop-color: black; stop-opacity: 20; }
              .stop3 { stop-color: blue; }
            ]]>
    </style> -->
  </defs>
 
 <g transform="translate(0.000000,1000.000000) scale(0.100000,-0.100000)">

 <path fill="url(#Gradient2)" stroke="url(#Gradient1)" stroke-width="300px" d="M4380 9993 c-400 -38 -656 -112 -995 -287 -350 -182 -624 -389 -892
-676 -422 -454 -786 -998 -1096 -1640 -89 -184 -120 -253 -297 -675 -156 -370
-231 -501 -420 -730 -361 -438 -459 -587 -524 -794 -104 -330 -150 -848 -151
-1681 0 -616 14 -760 112 -1117 l36 -133 43 0 c24 0 45 5 48 13 5 9 7 9 12 0
3 -7 13 -13 21 -13 11 0 14 6 9 23 -28 97 -80 328 -101 451 -23 136 -59 455
-52 462 2 2 25 -72 52 -164 223 -767 468 -1271 815 -1675 51 -59 95 -106 97
-104 2 3 -28 53 -67 113 -132 201 -407 786 -548 1164 -56 149 -102 300 -102
334 0 19 2 18 20 -9 11 -16 54 -106 96 -200 136 -301 462 -937 646 -1260 81
-142 103 -173 113 -163 8 8 -69 229 -203 584 -128 338 -265 724 -259 730 16
16 171 -294 347 -691 202 -455 336 -701 370 -680 5 3 -3 36 -17 73 -104 272
-248 705 -293 883 -11 42 -31 139 -45 215 -21 114 -44 197 -120 432 -3 6 -2
12 1 12 10 0 85 -169 155 -352 170 -442 341 -798 496 -1035 50 -77 231 -289
239 -280 2 2 -28 62 -68 133 -89 162 -155 306 -273 604 -139 351 -317 871
-302 886 2 2 34 -62 70 -143 171 -378 483 -873 737 -1168 61 -71 149 -179 195
-240 97 -128 118 -150 141 -141 13 5 15 14 9 43 -19 102 -384 853 -517 1063
-95 150 -188 317 -171 307 18 -12 137 -174 308 -422 507 -736 772 -1102 996
-1380 159 -198 177 -201 81 -14 -79 154 -205 363 -303 500 -196 276 -783 1238
-766 1255 7 8 46 -46 142 -201 104 -166 446 -678 571 -855 133 -188 123 -120
-26 166 -43 84 -113 207 -156 275 -126 200 -204 331 -204 343 1 32 224 -305
406 -611 530 -894 683 -1133 724 -1133 15 0 13 7 -24 68 -42 69 -107 255 -146
417 -30 126 -56 283 -48 291 3 2 20 -37 38 -88 104 -295 407 -808 477 -808 29
0 24 32 -20 127 -74 160 -227 598 -314 901 -19 68 -33 125 -31 128 6 6 131
-258 214 -451 131 -306 312 -642 382 -709 86 -81 49 60 -84 325 -114 229 -258
605 -252 658 3 23 8 18 36 -37 18 -34 42 -86 53 -115 89 -227 344 -653 482
-802 112 -123 115 -79 12 166 -116 273 -165 414 -165 464 1 19 2 19 21 -4 10
-13 63 -101 116 -195 166 -295 224 -376 270 -376 34 0 30 44 -13 165 -19 55
-48 138 -65 185 -97 275 -287 1086 -389 1655 -126 706 -278 1387 -415 1861
-83 287 -179 502 -375 844 -228 397 -279 563 -267 874 7 175 35 325 116 611
94 333 105 397 105 590 0 193 -16 316 -90 685 -58 292 -98 435 -141 507 -58
97 -51 97 -142 10 -106 -101 -127 -102 -75 -2 153 289 467 520 902 664 456
151 834 119 908 -75 28 -73 10 -98 -117 -165 -194 -101 -437 -299 -369 -299 6
0 63 20 128 44 197 73 299 81 412 30 87 -40 166 -128 235 -264 24 -48 27 -62
23 -125 -10 -147 -101 -280 -305 -448 -330 -270 -594 -616 -808 -1060 -88
-184 -145 -337 -191 -514 -91 -356 -84 -631 30 -1178 20 -93 115 -564 211
-1045 97 -481 201 -983 231 -1114 169 -731 360 -1274 571 -1625 57 -95 245
-363 250 -357 6 5 -31 91 -138 321 -102 221 -181 420 -177 444 4 22 49 -60
152 -279 118 -250 247 -498 302 -581 38 -57 52 -70 84 -79 35 -9 41 -15 51
-53 18 -69 126 -227 155 -227 8 0 14 3 14 6 0 4 -31 102 -69 218 -38 116 -110
378 -161 581 -50 204 -114 462 -142 575 -28 113 -61 238 -75 278 -13 40 -22
78 -20 85 7 18 86 -155 162 -353 124 -324 249 -604 483 -1075 174 -352 291
-568 333 -617 l28 -33 1 62 c0 116 -100 651 -170 903 -36 131 -45 178 -32 165
32 -33 142 -398 201 -670 48 -216 61 -260 81 -260 8 0 22 20 32 45 22 58 24
269 4 430 -25 195 -29 260 -17 260 32 0 60 -241 71 -605 9 -288 14 -345 30
-345 32 0 186 470 255 774 39 176 53 288 66 524 13 240 7 951 -11 1187 -34
471 -101 809 -245 1240 -98 296 -178 485 -350 830 -136 273 -200 390 -474 865
-62 107 -146 263 -186 345 -193 396 -212 599 -78 858 39 76 64 109 148 192 55
55 156 143 224 195 386 295 591 472 912 786 326 319 450 399 742 474 141 36
174 42 842 145 1065 165 1500 238 1613 270 41 12 52 20 52 36 0 110 -323 371
-594 479 -264 106 -524 128 -1886 161 l-485 12 -329 164 c-687 344 -899 418
-1286 453 -104 9 -545 12 -630 3z m1266 -903 c116 -88 165 -217 121 -321 -22
-53 -83 -117 -139 -145 -92 -46 -174 -42 -240 14 l-31 27 24 6 c13 4 50 7 83
8 32 1 76 6 98 13 78 23 182 144 180 209 -2 60 -112 159 -176 159 -36 0 -104
-29 -129 -54 -24 -25 -21 -43 12 -77 39 -38 77 -38 141 2 72 44 83 32 25 -30
-80 -86 -86 -86 -169 -6 -85 84 -80 150 16 204 76 44 117 42 184 -9z m2959 15
c165 -18 301 -40 404 -66 153 -39 350 -140 440 -227 l56 -53 -75 47 c-210 132
-400 196 -695 236 -145 19 -687 16 -935 -6 -107 -9 -377 -36 -600 -61 -223
-24 -451 -48 -507 -53 -217 -17 -42 25 322 77 196 28 874 115 975 125 84 8
474 -4 615 -19z m-165 -224 c0 -14 -29 -22 -56 -15 -38 10 -28 24 16 24 22 0
40 -4 40 -9z m-155 -41 c-18 -30 -554 -161 -1163 -284 -426 -87 -880 -161
-861 -142 9 10 248 63 655 146 468 95 699 146 919 202 315 79 467 106 450 78z
m-6622 -6450 c204 -365 498 -957 448 -905 -44 47 -459 844 -529 1015 -20 50
-20 53 -3 30 11 -14 49 -77 84 -140z m3657 -810 c45 -118 105 -264 132 -325
110 -242 130 -293 198 -491 77 -228 125 -393 116 -402 -14 -13 -30 24 -115
263 -108 303 -200 547 -319 845 -100 250 -152 398 -151 426 1 28 45 -73 139
-316z m-2370 168 c43 -86 52 -120 25 -98 -18 15 -95 166 -95 187 0 30 29 -7
70 -89z m1838 -170 c113 -276 301 -805 318 -894 5 -28 4 -36 -6 -32 -18 6
-386 1048 -371 1048 5 0 31 -55 59 -122z m-1680 -218 c74 -155 128 -277 148
-335 13 -37 13 -39 -2 -20 -37 46 -254 517 -254 551 0 17 44 -63 108 -196z
m795 55 c21 -44 21 -55 3 -55 -20 0 -46 39 -46 67 0 35 24 28 43 -12z m-655
-17 c23 -50 37 -118 24 -118 -11 0 -50 86 -58 130 -9 44 11 37 34 -12z m2408
-93 c8 -20 -4 -65 -16 -65 -6 0 -10 18 -10 40 0 40 15 54 26 25z"/>

 <path stroke-width="100px" stroke="black" id="outline" d="M195 2240 c3 -5 15 -15 26 -20 16 -9 19 -7 19 10 0 15 -7 20 -26 20
-14 0 -22 -4 -19 -10z"/>

<path stroke="aqua" stroke-width="70px" d="M260 2220 c0 -36 -11 -37 -58 -8 l-35 22 6 -25 c4 -13 7 -30 7 -36 0
-9 18 -13 55 -13 30 0 55 -4 55 -10 0 -5 -20 -10 -45 -10 -36 0 -45 -3 -45
-17 0 -26 16 -48 24 -34 21 34 78 -14 63 -53 -10 -25 -23 -18 -22 12 0 17 -5
27 -15 27 -24 0 -14 -54 15 -80 17 -16 25 -35 25 -56 0 -60 177 -373 219 -387
19 -6 8 39 -51 198 -70 188 -158 457 -158 480 0 13 -7 20 -20 20 -16 0 -20 -7
-20 -30z"/>

<!--  <path d="M213 1893 c15 -2 37 -2 50 0 12 2 0 4 -28 4 -27 0 -38 -2 -22 -4z"/>

<path d="M190 1847 c0 -7 17 -19 38 -27 57 -23 60 -23 20 0 -21 11 -38 25 -38
30 0 6 -4 10 -10 10 -5 0 -10 -6 -10 -13z"/>

<path d="M185 1660 c-6 -10 85 -54 93 -45 3 3 1 5 -5 5 -6 0 -26 11 -46 25
-20 13 -39 20 -42 15z"/>

<path d="M185 1521 c-6 -11 9 -23 19 -14 9 9 7 23 -3 23 -6 0 -12 -4 -16 -9z"/>

<path d="M207 1454 c6 -16 19 -18 27 -5 3 5 -3 11 -13 14 -14 3 -18 1 -14 -9z"/>

<path d="M250 1440 c0 -5 5 -10 10 -10 6 0 10 5 10 10 0 6 -4 10 -10 10 -5 0
-10 -4 -10 -10z"/>

<path d="M258 1403 c7 -3 16 -2 19 1 4 3 -2 6 -13 5 -11 0 -14 -3 -6 -6z"/>

<path d="M230 1179 c0 -5 5 -7 10 -4 6 3 10 8 10 11 0 2 -4 4 -10 4 -5 0 -10
-5 -10 -11z"/>

<path d="M260 1160 c-12 -8 -11 -10 8 -10 12 0 22 5 22 10 0 13 -11 13 -30 0z"/>

<path d="M183 1153 c9 -2 23 -2 30 0 6 3 -1 5 -18 5 -16 0 -22 -2 -12 -5z"/>

<path d="M220 1076 c0 -19 13 -27 28 -17 8 4 5 11 -8 19 -16 10 -20 10 -20 -2z"/>

<path d="M245 1020 c3 -5 10 -10 16 -10 5 0 9 5 9 10 0 6 -7 10 -16 10 -8 0
-12 -4 -9 -10z"/>

<path d="M217 973 c-11 -17 21 -39 35 -25 9 9 8 12 -4 12 -9 0 -18 5 -20 12
-3 8 -6 9 -11 1z"/>

<path d="M265 910 c-3 -6 -17 -7 -31 -4 -14 4 -24 2 -24 -5 0 -17 57 -13 64 4
6 17 0 20 -9 5z"/>

<path d="M250 850 c0 -5 5 -10 10 -10 6 0 10 5 10 10 0 6 -4 10 -10 10 -5 0
-10 -4 -10 -10z"/>

<path class="favicon-stroke" d="M180 800 c0 -19 3 -21 12 -12 9 9 9 15 0 24 -9 9 -12 7 -12 -12z"/>

<path class="favicon-stroke" d="M250 655 c0 -15 4 -24 10 -20 6 3 10 12 10 20 0 8 -4 17 -10 20 -6 4
-10 -5 -10 -20z"/>

<path class="favicon-stroke" d="M215 661 c-3 -5 -1 -12 5 -16 5 -3 10 1 10 9 0 18 -6 21 -15 7z"/>

<path class="favicon-stroke" d="M245 600 c-3 -5 1 -10 9 -10 9 0 16 5 16 10 0 6 -4 10 -9 10 -6 0
-13 -4 -16 -10z"/>

<path class="favicon-stroke" d="M214 548 c-9 -14 1 -20 30 -16 l26 3 -25 12 c-16 7 -27 8 -31 1z"/>

 <path class="favicon-stroke" d="M231 497 c2 -2 17 -11 32 -21 27 -17 28 -17 15 4 -7 11 -21 20 -32
20 -11 0 -17 -1 -15 -3z"/>

 <path class="favicon-stroke" d="M221 438 c-1 -22 18 -33 32 -19 8 8 7 11 -5 11 -9 0 -19 6 -21 13 -3
7 -6 6 -6 -5z"/>

 <path class="favicon-stroke" d="M210 380 l-45 -7 58 -1 c37 -1 56 2 52 8 -3 6 -9 9 -13 8 -4 0 -27
-4 -52 -8z"/>

 <path class="favicon-stroke" d="M216 325 c4 -8 16 -14 28 -14 16 1 17 2 4 6 -10 2 -18 9 -18 14 0 5
-4 9 -10 9 -5 0 -7 -7 -4 -15z"/>

 <path class="favicon-stroke" d="M254 275 c-10 -8 -14 -14 -9 -15 15 0 40 18 34 24 -3 3 -14 -1 -25
-9z"/>

<path class="favicon-stroke" d="M195 210 c3 -5 13 -10 21 -10 8 0 14 5 14 10 0 6 -9 10 -21 10 -11 0
-17 -4 -14 -10z"/>

 <path class="favicon-stroke" stroke="yellow" d="M252 199 c2 -7 10 -15 17 -17 8 -3 12 1 9 9 -2 7 -10 15 -17 17 -8 3
-12 -1 -9 -9z"/> -->

</g>
</svg>